<svg xmlns="http://www.w3.org/2000/svg" xmlns:xlink="http://www.w3.org/1999/xlink" width="720" zoomAndPan="magnify" viewBox="0 0 540 540.000001" height="720" preserveAspectRatio="xMidYMid meet" version="1.0"><defs><clipPath id="77b12414dd"><path d="M 90 90 L 450 90 L 450 449 L 90 449 Z M 90 90 " clip-rule="nonzero"/></clipPath><clipPath id="cd1ff07b30"><path d="M 478.207031 291.640625 L 247.859375 477.703125 L 61.796875 247.351562 L 292.144531 61.289062 Z M 478.207031 291.640625 " clip-rule="nonzero"/></clipPath><clipPath id="61d926c21a"><path d="M 478.207031 291.640625 L 244.980469 480.03125 L 56.589844 246.800781 L 289.820312 58.410156 Z M 478.207031 291.640625 " clip-rule="nonzero"/></clipPath><clipPath id="e962edd20a"><path d="M 422.300781 336.800781 L 303.765625 432.546875 C 288.9375 444.523438 269.960938 450.117188 251.007812 448.101562 C 232.054688 446.085938 214.675781 436.625 202.699219 421.796875 L 106.953125 303.261719 C 94.976562 288.433594 89.382812 269.453125 91.398438 250.5 C 93.414062 231.546875 102.875 214.171875 117.703125 202.195312 L 236.238281 106.449219 C 251.066406 94.472656 270.042969 88.875 288.996094 90.890625 C 307.949219 92.90625 325.328125 102.371094 337.304688 117.199219 L 433.050781 235.734375 C 445.027344 250.5625 450.621094 269.539062 448.605469 288.492188 C 446.589844 307.445312 437.128906 324.824219 422.300781 336.800781 Z M 422.300781 336.800781 " clip-rule="nonzero"/></clipPath><clipPath id="c531abe4fd"><path d="M 291 172 L 384 172 L 384 259 L 291 259 Z M 291 172 " clip-rule="nonzero"/></clipPath><clipPath id="c1c4e3520a"><path d="M 395.875 207.359375 L 317.175781 270.929688 L 278.519531 223.074219 L 357.21875 159.503906 Z M 395.875 207.359375 " clip-rule="nonzero"/></clipPath><clipPath id="09b5db1af4"><path d="M 371.949219 226.6875 L 341.164062 251.550781 C 334.820312 256.675781 326.695312 259.070312 318.585938 258.207031 C 310.472656 257.347656 303.035156 253.296875 297.910156 246.949219 C 292.785156 240.605469 290.390625 232.480469 291.25 224.371094 C 292.113281 216.257812 296.164062 208.820312 302.511719 203.695312 L 333.292969 178.832031 C 339.636719 173.703125 347.761719 171.308594 355.875 172.171875 C 363.984375 173.035156 371.421875 177.085938 376.546875 183.429688 C 381.675781 189.777344 384.070312 197.898438 383.207031 206.011719 C 382.34375 214.125 378.292969 221.5625 371.949219 226.6875 Z M 371.949219 226.6875 " clip-rule="nonzero"/></clipPath><clipPath id="f82279065a"><path d="M 154 280 L 249 280 L 249 369 L 154 369 Z M 154 280 " clip-rule="nonzero"/></clipPath><clipPath id="04c51b996a"><path d="M 261.199219 316.144531 L 181 380.921875 L 142.347656 333.066406 L 222.542969 268.289062 Z M 261.199219 316.144531 " clip-rule="nonzero"/></clipPath><clipPath id="1371524630"><path d="M 237.269531 335.472656 L 204.933594 361.589844 C 198.585938 366.71875 190.464844 369.113281 182.351562 368.25 C 174.238281 367.386719 166.804688 363.335938 161.675781 356.992188 C 156.550781 350.644531 154.15625 342.523438 155.019531 334.410156 C 155.882812 326.296875 159.929688 318.859375 166.277344 313.734375 L 198.613281 287.613281 C 204.960938 282.488281 213.082031 280.09375 221.195312 280.957031 C 229.308594 281.820312 236.746094 285.867188 241.871094 292.214844 C 246.996094 298.5625 249.390625 306.683594 248.527344 314.796875 C 247.667969 322.90625 243.617188 330.34375 237.269531 335.472656 Z M 237.269531 335.472656 " clip-rule="nonzero"/></clipPath><clipPath id="3d46ee2633"><path d="M 229 226 L 311 226 L 311 313 L 229 313 Z M 229 226 " clip-rule="nonzero"/></clipPath><clipPath id="449e2669ed"><path d="M 264.820312 214.152344 L 323.105469 286.308594 L 275.25 324.964844 L 216.964844 252.804688 Z M 264.820312 214.152344 " clip-rule="nonzero"/></clipPath><clipPath id="618869d950"><path d="M 284.148438 238.078125 L 303.703125 262.289062 C 308.828125 268.632812 311.222656 276.757812 310.363281 284.867188 C 309.5 292.980469 305.449219 300.417969 299.101562 305.542969 C 292.757812 310.667969 284.632812 313.066406 276.523438 312.203125 C 268.410156 311.339844 260.972656 307.289062 255.847656 300.941406 L 236.292969 276.734375 C 231.167969 270.386719 228.769531 262.265625 229.632812 254.152344 C 230.496094 246.042969 234.546875 238.605469 240.894531 233.476562 C 247.238281 228.351562 255.363281 225.957031 263.472656 226.820312 C 271.585938 227.683594 279.023438 231.734375 284.148438 238.078125 Z M 284.148438 238.078125 " clip-rule="nonzero"/></clipPath></defs><g clip-path="url(#77b12414dd)"><g clip-path="url(#cd1ff07b30)"><g clip-path="url(#61d926c21a)"><g clip-path="url(#e962edd20a)"><path stroke-linecap="butt" transform="matrix(-1.047047, 0.845739, -0.845739, -1.047047, 478.208298, 291.641035)" fill="none" stroke-linejoin="miter" d="M 53.395956 -0.000678468 L 166.605338 -0.00117299 C 180.766877 -0.000789486 194.346283 5.625395 204.359698 15.638658 C 214.373113 25.651921 220.00082 39.233455 220.000437 53.394994 L 220.000931 166.604376 C 220.000548 180.765915 214.372539 194.347578 204.359276 204.360993 C 194.346014 214.374409 180.766303 219.999858 166.604764 219.999474 L 53.395382 219.999969 C 39.233843 219.999585 25.652614 214.375658 15.639199 204.362396 C 5.625784 194.349133 -0.0000996548 180.765341 0.00028385 166.603802 L -0.000210673 53.39442 C 0.000172832 39.232881 5.626357 25.653475 15.63962 15.64006 C 25.652883 5.626645 39.234417 -0.00106197 53.395956 -0.000678468 Z M 53.395956 -0.000678468 " stroke="#3852ff" stroke-width="64.518867" stroke-opacity="1" stroke-miterlimit="4"/></g></g></g></g><g clip-path="url(#c531abe4fd)"><g clip-path="url(#c1c4e3520a)"><g clip-path="url(#09b5db1af4)"><path fill="#3852ff" d="M 395.875 207.359375 L 317.175781 270.929688 L 278.519531 223.074219 L 357.21875 159.503906 Z M 395.875 207.359375 " fill-opacity="1" fill-rule="nonzero"/></g></g></g><g clip-path="url(#f82279065a)"><g clip-path="url(#04c51b996a)"><g clip-path="url(#1371524630)"><path fill="#3852ff" d="M 261.199219 316.144531 L 181 380.921875 L 142.347656 333.066406 L 222.542969 268.289062 Z M 261.199219 316.144531 " fill-opacity="1" fill-rule="nonzero"/></g></g></g><g clip-path="url(#3d46ee2633)"><g clip-path="url(#449e2669ed)"><g clip-path="url(#618869d950)"><path fill="#3852ff" d="M 264.820312 214.152344 L 323.105469 286.308594 L 275.25 324.964844 L 216.964844 252.804688 Z M 264.820312 214.152344 " fill-opacity="1" fill-rule="nonzero"/></g></g></g></svg>